<?xml version="1.0" standalone="no"?>
<!DOCTYPE svg PUBLIC "-//W3C//DTD SVG 20010904//EN"
 "http://www.w3.org/TR/2001/REC-SVG-20010904/DTD/svg10.dtd">
<svg version="1.0" xmlns="http://www.w3.org/2000/svg"
 width="553.000000pt" height="416.000000pt" viewBox="0 0 553.000000 416.000000"
 preserveAspectRatio="xMidYMid meet">

<g transform="translate(0.000000,416.000000) scale(0.100000,-0.100000)"
fill="#000000" stroke="none">
<path d="M5470 4134 c-11 -12 -10 -18 3 -32 16 -15 18 -15 34 0 13 14 14 20 3
32 -7 9 -16 16 -20 16 -4 0 -13 -7 -20 -16z"/>
<path d="M1915 1938 c-15 -18 -44 -50 -63 -70 l-36 -38 165 0 165 0 17 53 c29
91 33 87 -101 87 l-119 0 -28 -32z m75 -13 c-14 -7 -27 -11 -30 -9 -6 7 22 24
40 23 9 0 5 -6 -10 -14z m140 -3 c0 -4 -29 -17 -65 -29 -36 -12 -65 -17 -65
-12 0 4 17 13 38 19 20 5 44 14 52 20 18 12 40 13 40 2z"/>
<path d="M2211 1908 c-12 -34 -21 -66 -21 -70 0 -4 74 -8 165 -8 l165 0 0 70
0 70 -144 0 -144 0 -21 -62z m105 23 c-8 -12 -46 -21 -46 -11 0 9 18 18 38 19
7 1 11 -3 8 -8z m144 -9 c0 -5 -21 -16 -47 -25 -27 -8 -56 -18 -65 -22 -10 -4
-18 -3 -18 1 0 5 26 19 58 31 66 25 72 26 72 15z"/>
<path d="M2567 1963 c-8 -8 -9 -103 -2 -103 3 0 22 8 43 19 56 28 151 59 205
67 91 13 46 24 -96 24 -79 0 -147 -3 -150 -7z m79 -32 c-8 -12 -46 -21 -46
-11 0 9 18 18 38 19 7 1 11 -3 8 -8z"/>
<path d="M2992 1960 c54 -4 113 -11 133 -14 20 -4 35 -3 35 2 0 18 -31 22
-148 21 l-117 -2 97 -7z"/>
<path d="M1729 1728 c-35 -40 -70 -81 -78 -91 -13 -17 -3 -17 209 -15 l222 3
24 75 c13 41 24 81 24 88 0 9 -40 12 -168 12 l-169 0 -64 -72z m121 32 c0 -5
-3 -10 -7 -10 -5 0 -19 -3 -33 -6 l-25 -5 25 15 c30 18 40 20 40 6z m155 -19
c-14 -12 -157 -62 -163 -56 -5 4 6 10 103 47 46 18 74 22 60 9z"/>
<path d="M2175 1788 c-3 -7 -16 -48 -29 -90 l-24 -78 112 0 112 0 36 55 c20
30 35 55 35 55 -1 0 -33 -11 -71 -25 -78 -28 -76 -28 -76 -17 0 5 38 21 85 37
47 16 95 40 107 52 l21 23 -152 0 c-112 0 -153 -3 -156 -12z m95 -26 c0 -4
-13 -13 -30 -19 -35 -13 -41 -1 -7 15 27 13 37 14 37 4z"/>
<path d="M2036 1469 c-44 -11 -100 -49 -117 -81 -9 -16 -8 -19 2 -13 9 6 10 3
5 -11 -12 -28 -35 -127 -35 -144 1 -8 5 -4 9 10 l8 25 1 -26 c2 -50 42 -92
132 -139 94 -50 121 -68 134 -90 8 -13 7 -13 -10 0 -17 14 -17 13 -10 -10 19
-59 -3 -90 -64 -90 -20 0 -52 9 -71 19 -91 50 -78 51 -126 -4 -24 -27 -44 -57
-44 -65 0 -22 45 -63 100 -92 37 -19 60 -23 130 -22 74 0 92 4 138 29 77 42
106 95 107 195 0 118 -18 143 -154 215 -63 33 -113 67 -117 77 -18 59 43 83
121 49 55 -24 61 -22 100 45 21 35 24 48 15 64 -6 11 -13 20 -16 20 -3 0 -2
-4 1 -10 9 -14 5 -13 -40 10 -22 11 -46 20 -55 20 -13 0 -13 1 0 10 12 8 10
10 -8 10 -13 0 -21 -3 -19 -7 3 -5 -17 -8 -43 -8 -55 0 -54 11 0 18 l35 4 -35
0 c-19 1 -53 -3 -74 -8z m-16 -25 c-19 -8 -47 -27 -62 -41 -16 -15 -28 -22
-28 -16 0 20 79 72 110 72 8 0 -1 -7 -20 -15z m262 -66 c-7 -7 -12 -8 -12 -2
0 6 3 14 7 17 3 4 9 5 12 2 2 -3 -1 -11 -7 -17z"/>
<path d="M2629 1464 c-26 -7 -59 -21 -75 -29 -48 -25 -119 -102 -150 -162 -26
-53 -29 -67 -29 -163 0 -87 4 -113 22 -153 129 -282 494 -288 629 -11 25 53
28 70 29 159 0 88 -3 107 -26 156 -48 103 -128 173 -229 203 -65 19 -110 19
-171 0z m181 -198 c97 -64 109 -218 24 -298 -101 -94 -254 -46 -289 90 -44
168 125 301 265 208z m-386 -282 c3 -8 2 -12 -4 -9 -6 3 -10 10 -10 16 0 14 7
11 14 -7z m146 -161 c30 -18 49 -33 42 -33 -34 0 -182 131 -182 161 0 6 19
-14 43 -43 24 -29 67 -68 97 -85z m400 96 c-24 -44 -87 -103 -135 -125 -50
-24 -147 -32 -187 -16 -10 4 22 7 71 7 80 0 92 3 137 30 27 17 65 52 84 78 38
51 47 59 30 26z"/>
<path d="M3115 1455 l-25 -24 0 -319 c0 -308 1 -320 21 -346 l20 -26 179 0
179 0 20 26 c24 30 27 67 8 104 -12 24 -17 25 -137 30 l-125 5 -2 90 c-5 179
-24 419 -34 432 -7 7 -28 13 -48 13 -27 0 -32 3 -21 10 24 16 59 11 80 -10 11
-11 20 -16 20 -11 0 18 -53 51 -82 51 -17 0 -39 -10 -53 -25z m122 -417 c-2
-24 -4 -5 -4 42 0 47 2 66 4 43 2 -24 2 -62 0 -85z"/>
<path d="M3894 1461 c-17 -11 -36 -32 -41 -48 -6 -15 -70 -162 -142 -326 -73
-165 -131 -308 -129 -320 3 -20 8 -22 78 -22 l75 0 35 72 35 73 131 0 131 0
27 -60 c38 -84 46 -90 121 -90 52 0 66 4 74 18 8 14 -22 91 -135 348 -170 386
-182 403 -260 355z m88 -28 c15 -16 37 -50 48 -78 61 -139 150 -359 146 -362
-1 -2 -29 59 -61 134 -122 289 -144 324 -197 307 -20 -6 -21 -5 -9 10 20 23
44 20 73 -11z m18 -380 c0 -9 -19 -13 -65 -13 -36 0 -65 2 -65 5 0 3 15 40 33
81 l32 76 32 -68 c18 -38 32 -75 33 -81z"/>
<path d="M4367 1462 c-15 -17 -17 -56 -17 -359 0 -282 2 -343 14 -352 8 -7 37
-11 67 -9 69 4 79 22 79 141 0 86 0 87 25 87 20 0 37 -20 99 -115 l75 -115 64
0 c107 0 112 26 28 158 l-59 93 43 40 c89 82 111 221 51 323 -58 99 -125 126
-316 126 -120 0 -139 -2 -153 -18z m290 -172 c59 -35 55 -126 -7 -157 -14 -7
-51 -13 -82 -13 l-58 0 0 95 0 95 58 0 c39 0 67 -6 89 -20z"/>
<path d="M582 1448 c-109 -18 -209 -95 -260 -197 -25 -51 -27 -66 -27 -171 0
-100 3 -121 23 -162 36 -74 96 -134 168 -169 58 -29 74 -32 152 -32 73 0 95 4
137 25 28 15 61 38 74 52 28 30 24 44 -31 111 l-30 36 -43 -26 c-65 -38 -147
-36 -204 5 -74 54 -104 134 -81 218 12 47 59 106 101 128 45 23 118 18 179
-13 l53 -26 23 28 c13 16 31 44 41 62 16 31 16 33 -2 53 -50 55 -183 94 -273
78z m46 -148 c-103 -13 -174 -72 -198 -166 l-10 -39 5 40 c10 90 117 176 214
174 l46 -2 -57 -7z m193 -8 c-19 -35 -34 -41 -61 -27 -14 8 -21 14 -17 15 5 0
17 -5 27 -10 16 -8 22 -6 36 15 19 29 29 34 15 7z m-101 -2 c8 -5 11 -10 5
-10 -5 0 -17 5 -25 10 -8 5 -10 10 -5 10 6 0 17 -5 25 -10z m-278 -289 c6 -18
27 -52 47 -74 26 -29 30 -37 14 -28 -30 16 -73 91 -78 138 -2 21 -2 29 1 18 3
-11 10 -35 16 -54z m118 -121 c8 -5 11 -10 5 -10 -5 0 -17 5 -25 10 -8 5 -10
10 -5 10 6 0 17 -5 25 -10z"/>
<path d="M1492 1435 c0 -16 2 -22 5 -12 2 9 2 23 0 30 -3 6 -5 -1 -5 -18z"/>
<path d="M2211 1456 c2 -2 15 -9 29 -15 24 -11 24 -11 6 3 -16 13 -49 24 -35
12z"/>
<path d="M1590 1430 c0 -11 5 -20 10 -20 6 0 10 9 10 20 0 11 -4 20 -10 20 -5
0 -10 -9 -10 -20z"/>
<path d="M1891 1314 c0 -11 3 -14 6 -6 3 7 2 16 -1 19 -3 4 -6 -2 -5 -13z"/>
<path d="M1919 1153 c16 -31 65 -67 146 -104 39 -18 74 -35 79 -37 5 -3 5 1 1
8 -4 7 -42 28 -84 47 -42 19 -93 51 -115 71 -27 26 -35 30 -27 15z"/>
<path d="M1010 955 l-23 -25 61 0 c34 0 62 4 62 9 0 5 3 16 6 25 5 13 -2 16
-38 16 -35 0 -50 -6 -68 -25z"/>
<path d="M1131 961 c-16 -30 -15 -31 40 -31 47 0 50 2 47 23 -4 31 -71 38 -87
8z"/>
<path d="M1237 973 c-4 -3 -7 -12 -7 -19 0 -11 5 -11 25 -2 13 6 22 15 19 19
-6 11 -28 12 -37 2z"/>
<path d="M990 912 c0 -4 7 -18 16 -30 18 -26 69 -30 78 -6 14 37 7 44 -44 44
-27 0 -50 -3 -50 -8z"/>
<path d="M1101 888 c-9 -26 -8 -28 18 -28 16 0 37 10 50 24 l22 24 -40 4 c-37
3 -42 1 -50 -24z"/>
<path d="M1655 845 c-29 -28 -32 -55 -7 -83 27 -31 55 -35 85 -11 33 25 36 70
7 99 -27 27 -56 25 -85 -5z"/>
<path d="M1040 840 c0 -5 7 -10 15 -10 8 0 15 5 15 10 0 6 -7 10 -15 10 -8 0
-15 -4 -15 -10z"/>
<path d="M1077 826 c-7 -17 1 -26 24 -26 14 0 29 18 29 36 0 11 -49 2 -53 -10z"/>
<path d="M350 530 c0 -59 0 -60 28 -59 23 2 24 2 5 6 -16 3 -23 11 -23 28 0
17 7 25 23 28 l22 4 -22 2 c-16 1 -23 7 -23 20 0 12 8 21 23 24 19 4 18 4 -5
6 -28 1 -28 0 -28 -59z"/>
<path d="M432 528 l1 -63 6 50 6 50 22 -42 c35 -64 43 -62 41 9 -1 63 -1 63
-7 15 l-6 -47 -28 45 c-16 25 -31 45 -33 45 -2 0 -3 -28 -2 -62z"/>
<path d="M541 533 c1 -32 4 -46 6 -31 3 18 12 28 26 31 l22 4 -22 2 c-16 1
-23 7 -23 20 0 12 8 21 23 24 19 4 18 4 -5 6 -28 1 -28 0 -27 -56z"/>
<path d="M622 528 l2 -63 3 58 c3 48 7 57 23 57 28 0 34 -19 14 -41 -10 -11
-12 -19 -6 -19 7 0 12 -6 12 -14 0 -8 4 -18 10 -21 6 -4 6 3 0 21 -7 19 -7 30
1 40 16 19 -6 44 -37 44 -23 0 -24 -3 -22 -62z"/>
<path d="M823 530 c0 -36 2 -50 4 -32 2 17 2 47 0 65 -2 17 -4 3 -4 -33z"/>
<path d="M896 577 c3 -10 9 -15 12 -12 3 3 0 11 -7 18 -10 9 -11 8 -5 -6z"/>
<path d="M1090 575 c-6 -8 -10 -20 -7 -27 4 -8 6 -7 6 4 1 9 9 22 19 27 9 6
12 11 6 11 -6 0 -17 -7 -24 -15z"/>
<path d="M1144 577 c14 -10 17 -23 14 -50 -2 -19 0 -33 4 -31 4 3 8 20 8 38 0
32 -15 56 -34 56 -5 0 -2 -6 8 -13z"/>
<path d="M1282 583 c13 -3 18 -18 21 -61 l3 -57 2 57 c2 44 6 58 20 61 9 3 -1
5 -23 5 -22 0 -32 -2 -23 -5z"/>
<path d="M1360 530 l0 -60 33 1 c30 2 30 2 5 6 -36 6 -40 49 -5 56 l22 4 -22
2 c-35 2 -31 39 5 44 25 4 25 4 -5 6 l-33 1 0 -60z"/>
<path d="M1452 583 c15 -34 65 -113 71 -113 4 0 6 26 5 58 l-1 57 -6 -45 -6
-45 -28 48 c-16 26 -31 47 -34 47 -2 0 -3 -3 -1 -7z"/>
<path d="M1620 581 c14 -4 25 -13 25 -21 0 -8 -11 -17 -25 -19 l-25 -4 25 -6
c33 -9 35 -46 3 -45 -13 0 -23 -3 -23 -8 0 -14 37 -9 51 8 9 11 10 20 2 32 -7
12 -7 22 1 35 13 20 -5 37 -39 36 -16 -1 -15 -2 5 -8z"/>
<path d="M1692 533 l-2 -63 33 1 c29 2 30 2 5 6 -25 4 -27 8 -31 61 l-3 57 -2
-62z"/>
<path d="M1770 530 l0 -60 33 1 c30 2 30 2 5 6 -36 6 -40 49 -5 56 l22 4 -22
2 c-31 1 -31 38 0 44 19 4 18 4 -5 6 -28 1 -28 0 -28 -59z"/>
<path d="M1890 582 c0 -5 10 -8 23 -8 16 1 22 -5 22 -19 0 -14 -6 -20 -22 -19
-13 0 -23 -3 -23 -8 0 -14 37 -9 51 8 9 11 10 20 2 32 -11 18 -53 29 -53 14z"/>
<path d="M2000 580 c0 -5 5 -10 10 -10 6 0 10 -7 10 -17 0 -9 3 -14 6 -10 8 8
-5 47 -17 47 -5 0 -9 -4 -9 -10z"/>
<path d="M2082 528 l2 -63 3 58 c3 49 7 57 23 57 21 0 29 -34 11 -44 -9 -6 15
-66 25 -66 3 0 2 6 -2 12 -5 7 -8 33 -9 58 0 42 -2 45 -27 48 l-28 3 2 -63z"/>
<path d="M2196 583 c-10 -10 -7 -25 4 -18 6 3 10 2 10 -4 0 -5 3 -16 6 -25 5
-12 0 -16 -19 -16 -17 0 -26 -7 -30 -22 -8 -29 -1 -36 8 -9 7 24 55 30 55 7 0
-8 4 -17 9 -21 6 -3 5 8 -1 27 -5 18 -12 43 -15 56 -6 25 -17 35 -27 25z"/>
<path d="M2468 583 c22 -9 33 -50 21 -80 -8 -22 -8 -25 2 -16 26 26 7 104 -25
102 -6 0 -5 -3 2 -6z"/>
<path d="M2548 579 c-10 -5 -18 -18 -17 -27 0 -14 2 -14 6 -2 4 8 13 20 22 27
19 15 13 16 -11 2z"/>
<path d="M2664 576 c-4 -9 -4 -20 0 -23 3 -4 6 0 6 8 1 8 7 3 16 -11 l15 -25
-7 25 c-9 35 -22 47 -30 26z"/>
<path d="M2742 528 l2 -63 3 58 c3 48 7 57 23 57 28 0 34 -19 14 -41 -9 -10
-12 -19 -7 -19 6 0 14 -12 17 -26 4 -15 9 -24 12 -22 2 3 0 18 -6 33 -7 20 -7
31 1 41 16 19 -6 44 -37 44 -23 0 -24 -3 -22 -62z"/>
<path d="M2830 530 l0 -60 33 1 c30 2 30 2 5 6 -36 6 -40 49 -5 56 l22 4 -22
2 c-35 2 -31 39 5 44 25 4 25 4 -5 6 l-33 1 0 -60z"/>
<path d="M3070 580 c0 -5 5 -10 11 -10 5 0 7 5 4 10 -3 6 -8 10 -11 10 -2 0
-4 -4 -4 -10z"/>
<path d="M3138 534 c-1 -31 0 -58 5 -61 4 -2 7 23 7 56 0 76 -7 79 -12 5z"/>
<path d="M3180 530 l0 -60 33 1 c30 2 30 2 5 6 -36 6 -40 49 -5 56 l22 4 -22
2 c-16 1 -23 7 -23 20 0 12 8 21 23 24 19 4 18 4 -5 6 -28 1 -28 0 -28 -59z"/>
<path d="M3376 568 c-9 -12 -16 -29 -16 -38 0 -24 29 -60 49 -60 43 0 68 72
35 104 -22 22 -31 20 -11 -2 20 -22 22 -63 5 -80 -18 -18 -46 -14 -58 7 -15
29 -12 49 10 71 11 11 16 20 11 20 -6 0 -17 -10 -25 -22z"/>
<path d="M3496 574 c-35 -35 -4 -112 41 -101 16 4 15 5 -2 6 -48 3 -63 67 -23
95 12 9 17 16 11 16 -6 0 -19 -7 -27 -16z"/>
<path d="M3583 530 c0 -36 2 -50 4 -32 2 17 2 47 0 65 -2 17 -4 3 -4 -33z"/>
<path d="M3630 575 c-6 -8 -10 -20 -7 -27 4 -8 6 -7 6 4 1 9 9 22 19 27 9 6
12 11 6 11 -6 0 -17 -7 -24 -15z"/>
<path d="M3684 577 c27 -20 18 -78 -14 -94 -16 -8 -19 -13 -9 -13 24 0 49 33
49 66 0 30 -15 54 -34 54 -5 0 -2 -6 8 -13z"/>
<path d="M3850 585 c1 -5 7 -19 15 -29 8 -11 16 -36 16 -55 l1 -36 7 35 c4 19
13 46 19 60 l13 25 -17 -23 -17 -23 -18 28 c-11 15 -19 24 -19 18z"/>
<path d="M3980 530 l0 -60 33 1 c30 2 30 2 5 6 -36 6 -40 49 -5 56 l22 4 -22
2 c-35 2 -31 39 5 44 25 4 25 4 -5 6 l-33 1 0 -60z"/>
<path d="M4070 561 c0 -17 2 -31 4 -31 8 0 13 51 5 56 -5 3 -9 -9 -9 -25z"/>
<path d="M4146 574 c-4 -9 -4 -19 -1 -22 3 -3 6 1 7 9 1 8 4 -11 8 -41 l7 -55
1 63 c2 59 -9 81 -22 46z"/>
<path d="M4201 528 c1 -35 4 -51 6 -36 3 18 11 28 25 30 12 2 23 9 24 16 1 7
0 8 -3 2 -2 -5 -13 -10 -24 -10 -14 0 -19 7 -19 25 0 18 5 25 19 25 11 0 22
-5 24 -10 3 -6 4 -5 3 2 -1 7 -15 14 -29 16 -27 3 -27 3 -26 -60z"/>
<path d="M4292 528 l2 -63 3 58 c3 49 7 57 23 57 23 0 27 -29 8 -48 -9 -9 -9
-12 0 -12 7 0 12 -9 12 -19 0 -11 4 -23 10 -26 6 -4 7 1 3 11 -3 9 -7 35 -7
58 -1 37 -4 41 -28 44 l-28 3 2 -63z"/>
<path d="M4380 530 l0 -60 33 1 c30 2 30 2 5 6 -36 6 -40 49 -5 56 l22 4 -22
2 c-16 1 -23 7 -23 20 0 12 8 21 23 24 19 4 18 4 -5 6 -28 1 -28 0 -28 -59z"/>
<path d="M4467 583 c-15 -14 -6 -40 18 -53 31 -17 29 -41 -5 -52 l-25 -7 24 2
c13 1 29 10 35 20 9 15 6 22 -16 41 -30 23 -35 41 -15 49 6 3 7 6 1 6 -6 1
-14 -2 -17 -6z"/>
<path d="M4570 584 c0 -3 7 -12 15 -20 16 -17 18 -14 9 10 -6 15 -24 23 -24
10z"/>
<path d="M717 573 c-4 -3 -7 -23 -7 -44 0 -28 5 -41 19 -49 30 -16 38 -12 12
6 -19 13 -22 24 -19 55 2 22 3 39 2 39 0 0 -4 -3 -7 -7z"/>
<path d="M1563 525 c0 -33 2 -45 4 -27 2 18 2 45 0 60 -2 15 -4 0 -4 -33z"/>
<path d="M2313 525 c0 -33 2 -46 4 -28 4 27 9 32 36 36 l32 4 -32 1 c-24 2
-33 7 -36 25 -2 12 -4 -5 -4 -38z"/>
<path d="M2416 564 c-17 -43 8 -94 45 -94 8 0 3 6 -11 13 -21 11 -25 20 -24
55 1 46 -1 50 -10 26z"/>
<path d="M2911 568 c0 -10 10 -25 23 -34 14 -8 27 -25 29 -37 l4 -22 2 22 c0
14 -9 29 -23 39 -14 8 -27 23 -29 32 -4 15 -5 15 -6 0z"/>
<path d="M3260 555 c-13 -34 3 -73 34 -81 32 -8 46 1 46 32 0 16 -5 24 -17 23
-11 0 -13 -3 -5 -6 20 -8 14 -43 -8 -43 -30 0 -53 41 -41 74 6 14 8 26 6 26
-3 0 -10 -11 -15 -25z"/>
<path d="M1000 552 c0 -6 11 -17 25 -26 14 -9 25 -13 25 -9 -1 12 -50 46 -50
35z"/>
<path d="M1200 552 c0 -5 11 -17 25 -26 14 -9 25 -12 25 -6 0 5 -4 10 -9 10
-5 0 -17 7 -25 16 -9 8 -16 11 -16 6z"/>
<path d="M1982 521 c-14 -45 -15 -66 -2 -33 13 31 60 31 60 0 0 -12 3 -19 6
-15 4 3 4 17 0 30 -4 19 -11 23 -30 20 -21 -4 -24 -2 -19 16 10 37 -3 22 -15
-18z"/>
<path d="M3073 515 c0 -27 2 -38 4 -22 2 15 2 37 0 50 -2 12 -4 0 -4 -28z"/>
<path d="M3105 530 c9 -16 18 -30 21 -30 2 0 -2 14 -11 30 -9 17 -18 30 -21
30 -2 0 2 -13 11 -30z"/>
<path d="M3740 552 c0 -5 11 -17 25 -26 14 -9 25 -12 25 -6 0 5 -4 10 -9 10
-5 0 -17 7 -25 16 -9 8 -16 11 -16 6z"/>
<path d="M4091 550 c0 -8 4 -24 9 -35 5 -13 9 -14 9 -5 0 8 -4 24 -9 35 -5 13
-9 14 -9 5z"/>
<path d="M4561 544 c0 -11 3 -14 6 -6 3 7 2 16 -1 19 -3 4 -6 -2 -5 -13z"/>
<path d="M4650 552 c0 -6 11 -17 25 -26 14 -9 25 -13 25 -9 -1 12 -50 46 -50
35z"/>
<path d="M911 538 c-1 -20 -27 -25 -33 -7 -2 6 -9 -5 -15 -25 -6 -20 -7 -34
-2 -30 5 3 9 12 9 20 0 23 48 17 55 -7 4 -11 9 -19 11 -16 2 2 -2 21 -10 43
-8 21 -15 31 -15 22z"/>
<path d="M2643 506 c-6 -20 -7 -34 -2 -30 5 3 9 12 9 20 0 8 10 14 25 14 15 0
25 -6 25 -14 0 -8 4 -17 9 -20 4 -3 6 6 3 19 -3 18 -11 25 -27 25 -13 0 -25 5
-27 11 -2 6 -9 -5 -15 -25z"/>
<path d="M4128 525 c-3 -11 -9 -29 -13 -40 -3 -11 1 -7 10 8 9 16 15 33 12 40
-2 6 -6 3 -9 -8z"/>
<path d="M4600 532 c0 -7 -11 -12 -24 -12 -23 0 -37 -17 -35 -43 0 -7 4 -2 9
11 11 25 60 32 60 8 0 -8 4 -17 10 -21 5 -3 4 8 -2 27 -13 38 -18 47 -18 30z"/>
<path d="M766 522 c7 -4 14 -16 17 -27 4 -15 5 -14 6 8 1 20 -4 27 -16 27 -12
0 -14 -3 -7 -8z"/>
<path d="M1082 510 c0 -14 2 -19 5 -12 2 6 2 18 0 25 -3 6 -5 1 -5 -13z"/>
<path d="M2588 523 c6 -2 12 -13 12 -24 0 -27 -35 -25 -54 3 -13 19 -16 20
-16 5 0 -20 42 -42 64 -34 23 9 21 57 -1 56 -11 0 -13 -3 -5 -6z"/>
<path d="M3620 511 c0 -11 4 -22 9 -25 4 -3 6 6 3 19 -5 30 -12 33 -12 6z"/>
<path d="M1040 492 c0 -7 -10 -13 -22 -13 -19 -1 -20 -2 -4 -6 20 -5 44 12 33
24 -4 3 -7 1 -7 -5z"/>
<path d="M1240 492 c0 -7 -10 -13 -22 -13 -19 -1 -20 -2 -4 -6 20 -5 44 12 33
24 -4 3 -7 1 -7 -5z"/>
<path d="M3780 492 c0 -7 -10 -13 -22 -13 -19 -1 -20 -2 -4 -6 20 -5 44 12 33
24 -4 3 -7 1 -7 -5z"/>
<path d="M4061 484 c0 -11 3 -14 6 -6 3 7 2 16 -1 19 -3 4 -6 -2 -5 -13z"/>
<path d="M4690 492 c0 -7 -10 -13 -22 -13 -19 -1 -20 -2 -4 -6 20 -5 44 12 33
24 -4 3 -7 1 -7 -5z"/>
<path d="M2995 479 c-4 -6 -5 -12 -2 -15 2 -3 7 2 10 11 7 17 1 20 -8 4z"/>
<path d="M2928 473 c7 -3 16 -2 19 1 4 3 -2 6 -13 5 -11 0 -14 -3 -6 -6z"/>
</g>
</svg>
